<?xml version="1.0" encoding="UTF-8"?>
<svg id="Layer_1" data-name="Layer 1" xmlns="http://www.w3.org/2000/svg" viewBox="0 0 528.64 534.9">
  <defs>
    <style>
      .cls-1 {
        fill: #87d3e2;
      }

      .cls-1, .cls-2 {
        stroke-width: 0px;
      }

      .cls-3 {
        fill: none;
        stroke: #fff;
        stroke-linecap: round;
        stroke-linejoin: round;
        stroke-width: 11.47px;
      }

      .cls-2 {
        fill: #f04e51;
      }
    </style>
  </defs>
  <g>
    <g>
      <rect class="cls-1" x="55.92" y="154.39" width="143.38" height="43.01"/>
      <polygon class="cls-1" points="5.74 403.73 55.92 362.3 199.3 362.3 149.12 403.73 5.74 403.73"/>
      <polygon class="cls-1" points="5.74 403.73 149.12 403.73 163.46 425.24 163.46 426.03 163.46 526.4 20.07 526.4 20.07 426.03 20.07 425.24 5.74 403.73"/>
      <polygon class="cls-1" points="220.81 218.91 77.43 218.91 55.92 197.41 199.3 197.41 220.81 218.91"/>
      <path class="cls-1" d="M190.65,245.12c10.08-9,20.12-17.61,30.15-26.21l-30.15,26.21Z"/>
    </g>
    <g>
      <line class="cls-3" x1="55.92" y1="362.3" x2="199.3" y2="362.3"/>
      <line class="cls-3" x1="220.81" y1="218.91" x2="77.43" y2="218.91"/>
      <line class="cls-3" x1="55.92" y1="197.41" x2="77.43" y2="218.91"/>
      <line class="cls-3" x1="55.92" y1="154.39" x2="55.92" y2="197.41"/>
      <line class="cls-3" x1="199.3" y1="154.39" x2="55.92" y2="154.39"/>
      <line class="cls-3" x1="199.3" y1="197.41" x2="199.3" y2="154.39"/>
      <line class="cls-3" x1="220.81" y1="218.91" x2="199.3" y2="197.41"/>
      <line class="cls-3" x1="199.3" y1="197.41" x2="55.92" y2="197.41"/>
      <polyline class="cls-3" points="149.12 403.73 199.3 362.3 220.81 218.91"/>
      <line class="cls-3" x1="5.74" y1="403.73" x2="55.92" y2="362.3"/>
      <line class="cls-3" x1="163.46" y1="426.03" x2="163.46" y2="526.4"/>
      <line class="cls-3" x1="149.12" y1="403.73" x2="163.46" y2="425.24"/>
      <line class="cls-3" x1="5.74" y1="403.73" x2="149.12" y2="403.73"/>
      <line class="cls-3" x1="20.07" y1="425.24" x2="5.74" y2="403.73"/>
      <line class="cls-3" x1="20.07" y1="526.4" x2="20.07" y2="426.03"/>
      <polyline class="cls-3" points="263.82 526.4 163.46 526.4 20.07 526.4"/>
      <line class="cls-3" x1="263.82" y1="232.46" x2="263.82" y2="526.4"/>
      <line class="cls-3" x1="263.82" y1="204.58" x2="263.82" y2="231.05"/>
      <path class="cls-3" d="M263.82,204.58s0-50.18-64.52-50.18"/>
      <line class="cls-3" x1="169.21" y1="263.33" x2="173.36" y2="259.72"/>
      <line class="cls-3" x1="55.92" y1="362.3" x2="109.28" y2="315.9"/>
      <path class="cls-3" d="M220.81,218.91c-10.04,8.6-20.07,17.21-30.15,26.21l30.15-26.21Z"/>
      <line class="cls-3" x1="55.92" y1="362.3" x2="70.26" y2="254.76"/>
    </g>
  </g>
  <g>
    <g>
      <polygon class="cls-2" points="522.91 403.73 472.72 362.3 329.34 362.3 379.52 403.73 522.91 403.73"/>
      <path class="cls-2" d="M307.92,218.99l30.06,26.14c-10.04-8.98-20.05-17.56-30.06-26.14Z"/>
      <polygon class="cls-2" points="508.57 425.54 508.57 425.24 522.91 403.73 379.52 403.73 365.19 425.24 365.19 425.54 365.19 426.03 365.19 526.4 508.57 526.4 508.57 426.03 508.57 425.54"/>
      <polygon class="cls-2" points="329.34 197.41 307.83 218.91 451.21 218.91 472.72 197.41 329.34 197.41"/>
      <rect class="cls-2" x="329.34" y="154.39" width="143.38" height="43.01"/>
    </g>
    <g>
      <line class="cls-3" x1="472.72" y1="362.3" x2="329.34" y2="362.3"/>
      <line class="cls-3" x1="307.83" y1="218.91" x2="451.21" y2="218.91"/>
      <line class="cls-3" x1="472.72" y1="197.41" x2="451.21" y2="218.91"/>
      <line class="cls-3" x1="472.72" y1="154.39" x2="472.72" y2="197.41"/>
      <line class="cls-3" x1="329.34" y1="154.39" x2="472.72" y2="154.39"/>
      <line class="cls-3" x1="329.34" y1="197.41" x2="329.34" y2="154.39"/>
      <line class="cls-3" x1="307.83" y1="218.91" x2="329.34" y2="197.41"/>
      <line class="cls-3" x1="329.34" y1="197.41" x2="472.72" y2="197.41"/>
      <polyline class="cls-3" points="379.52 403.73 329.34 362.3 307.83 218.91"/>
      <line class="cls-3" x1="522.91" y1="403.73" x2="472.72" y2="362.3"/>
      <line class="cls-3" x1="365.19" y1="426.03" x2="365.19" y2="526.4"/>
      <line class="cls-3" x1="379.52" y1="403.73" x2="365.19" y2="425.24"/>
      <line class="cls-3" x1="522.91" y1="403.73" x2="379.52" y2="403.73"/>
      <line class="cls-3" x1="508.57" y1="425.24" x2="522.91" y2="403.73"/>
      <line class="cls-3" x1="508.57" y1="526.4" x2="508.57" y2="426.03"/>
      <polyline class="cls-3" points="264.82 526.4 365.19 526.4 508.57 526.4"/>
      <line class="cls-3" x1="264.82" y1="232.46" x2="264.82" y2="526.4"/>
      <line class="cls-3" x1="264.82" y1="204.58" x2="264.82" y2="231.05"/>
      <path class="cls-3" d="M264.82,204.58s0-50.18,64.52-50.18"/>
      <line class="cls-3" x1="359.43" y1="263.33" x2="355.28" y2="259.72"/>
      <line class="cls-3" x1="472.72" y1="362.3" x2="419.36" y2="315.9"/>
      <path class="cls-3" d="M307.92,218.99c10.01,8.58,20.02,17.16,30.06,26.14l-30.06-26.14Z"/>
      <line class="cls-3" x1="307.92" y1="218.99" x2="307.83" y2="218.91"/>
      <line class="cls-3" x1="472.72" y1="362.3" x2="458.38" y2="254.76"/>
    </g>
  </g>
</svg>