<?xml version="1.0" encoding="utf-8"?>
<!-- Generator: Adobe Illustrator 28.2.0, SVG Export Plug-In . SVG Version: 6.00 Build 0)  -->
<svg version="1.1" id="Layer_1" xmlns="http://www.w3.org/2000/svg" xmlns:xlink="http://www.w3.org/1999/xlink" x="0px" y="0px"
	 viewBox="0 0 528.6 534.9" style="enable-background:new 0 0 528.6 534.9;" xml:space="preserve">
<style type="text/css">
	.st0{fill:#87D3E2;}
	.st1{fill:none;stroke:#FFFFFF;stroke-width:11.47;stroke-linecap:round;stroke-linejoin:round;}
	.st2{fill:#F04E51;}
</style>
<g>
	<g>
		<g>
			<rect x="55.9" y="81.4" class="st0" width="143.4" height="43"/>
			<polygon class="st0" points="5.7,330.8 55.9,289.4 199.3,289.4 149.1,330.8 			"/>
			<polygon class="st0" points="5.7,330.8 149.1,330.8 163.5,352.3 163.5,353.1 163.5,453.5 20.1,453.5 20.1,353.1 20.1,352.3 			
				"/>
			<polygon class="st0" points="220.8,146 77.4,146 55.9,124.5 199.3,124.5 			"/>
			<path class="st0" d="M190.6,172.2c10.1-9,20.1-17.6,30.1-26.2L190.6,172.2z"/>
		</g>
		<g>
			<line class="st1" x1="55.9" y1="289.4" x2="199.3" y2="289.4"/>
			<line class="st1" x1="220.8" y1="146" x2="77.4" y2="146"/>
			<line class="st1" x1="55.9" y1="124.5" x2="77.4" y2="146"/>
			<line class="st1" x1="55.9" y1="81.4" x2="55.9" y2="124.5"/>
			<line class="st1" x1="199.3" y1="81.4" x2="55.9" y2="81.4"/>
			<line class="st1" x1="199.3" y1="124.5" x2="199.3" y2="81.4"/>
			<line class="st1" x1="220.8" y1="146" x2="199.3" y2="124.5"/>
			<line class="st1" x1="199.3" y1="124.5" x2="55.9" y2="124.5"/>
			<polyline class="st1" points="149.1,330.8 199.3,289.4 220.8,146 			"/>
			<line class="st1" x1="5.7" y1="330.8" x2="55.9" y2="289.4"/>
			<line class="st1" x1="163.5" y1="353.1" x2="163.5" y2="453.5"/>
			<line class="st1" x1="149.1" y1="330.8" x2="163.5" y2="352.3"/>
			<line class="st1" x1="5.7" y1="330.8" x2="149.1" y2="330.8"/>
			<line class="st1" x1="20.1" y1="352.3" x2="5.7" y2="330.8"/>
			<line class="st1" x1="20.1" y1="453.5" x2="20.1" y2="353.1"/>
			<polyline class="st1" points="263.8,453.5 163.5,453.5 20.1,453.5 			"/>
			<line class="st1" x1="263.8" y1="159.5" x2="263.8" y2="453.5"/>
			<line class="st1" x1="263.8" y1="131.6" x2="263.8" y2="158.1"/>
			<path class="st1" d="M263.8,131.6c0,0,0-50.2-64.5-50.2"/>
			<line class="st1" x1="169.2" y1="190.4" x2="173.4" y2="186.8"/>
			<line class="st1" x1="55.9" y1="289.4" x2="109.3" y2="243"/>
			<path class="st1" d="M220.8,146c-10,8.6-20.1,17.2-30.1,26.2L220.8,146z"/>
			<line class="st1" x1="55.9" y1="289.4" x2="70.3" y2="181.8"/>
		</g>
	</g>
	<g>
		<g>
			<polygon class="st2" points="522.9,330.8 472.7,289.4 329.3,289.4 379.5,330.8 			"/>
			<path class="st2" d="M307.9,146l30.1,26.1C327.9,163.2,317.9,154.6,307.9,146z"/>
			<polygon class="st2" points="508.6,352.6 508.6,352.3 522.9,330.8 379.5,330.8 365.2,352.3 365.2,352.6 365.2,353.1 365.2,453.5 
				508.6,453.5 508.6,353.1 			"/>
			<polygon class="st2" points="329.3,124.5 307.8,146 451.2,146 472.7,124.5 			"/>
			<rect x="329.3" y="81.4" class="st2" width="143.4" height="43"/>
		</g>
		<g>
			<line class="st1" x1="472.7" y1="289.4" x2="329.3" y2="289.4"/>
			<line class="st1" x1="307.8" y1="146" x2="451.2" y2="146"/>
			<line class="st1" x1="472.7" y1="124.5" x2="451.2" y2="146"/>
			<line class="st1" x1="472.7" y1="81.4" x2="472.7" y2="124.5"/>
			<line class="st1" x1="329.3" y1="81.4" x2="472.7" y2="81.4"/>
			<line class="st1" x1="329.3" y1="124.5" x2="329.3" y2="81.4"/>
			<line class="st1" x1="307.8" y1="146" x2="329.3" y2="124.5"/>
			<line class="st1" x1="329.3" y1="124.5" x2="472.7" y2="124.5"/>
			<polyline class="st1" points="379.5,330.8 329.3,289.4 307.8,146 			"/>
			<line class="st1" x1="522.9" y1="330.8" x2="472.7" y2="289.4"/>
			<line class="st1" x1="365.2" y1="353.1" x2="365.2" y2="453.5"/>
			<line class="st1" x1="379.5" y1="330.8" x2="365.2" y2="352.3"/>
			<line class="st1" x1="522.9" y1="330.8" x2="379.5" y2="330.8"/>
			<line class="st1" x1="508.6" y1="352.3" x2="522.9" y2="330.8"/>
			<line class="st1" x1="508.6" y1="453.5" x2="508.6" y2="353.1"/>
			<polyline class="st1" points="264.8,453.5 365.2,453.5 508.6,453.5 			"/>
			<line class="st1" x1="264.8" y1="159.5" x2="264.8" y2="453.5"/>
			<line class="st1" x1="264.8" y1="131.6" x2="264.8" y2="158.1"/>
			<path class="st1" d="M264.8,131.6c0,0,0-50.2,64.5-50.2"/>
			<line class="st1" x1="359.4" y1="190.4" x2="355.3" y2="186.8"/>
			<line class="st1" x1="472.7" y1="289.4" x2="419.4" y2="243"/>
			<path class="st1" d="M307.9,146c10,8.6,20,17.2,30.1,26.1L307.9,146z"/>
			<line class="st1" x1="307.9" y1="146" x2="307.8" y2="146"/>
			<line class="st1" x1="472.7" y1="289.4" x2="458.4" y2="181.8"/>
		</g>
	</g>
</g>
</svg>
