<?xml version="1.0" encoding="UTF-8"?>
<svg id="Layer_1" data-name="Layer 1" xmlns="https://www.w3.org/2000/svg" viewBox="0 0 967.78 95.46">
  <defs>
    <style>
      .cls-1 {
        fill: #fff;
      }

      .cls-1, .cls-2 {
        stroke-width: 0px;
      }

      .cls-2 {
        fill: #f04e51;
      }
    </style>
  </defs>
  <g>
    <path class="cls-2" d="M3.82,57.06C3.82,27.1,27.89,2.53,59.63,2.53c10.5,0,21.12,2.3,29.7,6.53l-4.86,23.04c-6.78-3.58-15.87-5.5-25.6-5.5-21.25,0-29.44,14.72-29.44,27.65,0,9.34,6.02,17.54,19.07,17.54,3.84,0,6.91-.51,9.98-1.41l2.43-11.52h-13.06l4.22-20.35h36.1l-11.14,51.84c-11.26,4.1-20.61,5.12-28.93,5.12-29.06,0-44.29-14.34-44.29-38.4Z"/>
    <path class="cls-2" d="M112.24,4.19h25.09l-13.95,65.79h35.33l-4.99,23.81h-60.42L112.24,4.19Z"/>
    <path class="cls-2" d="M208.88,4.19h31.36l12.54,89.6h-25.86l-1.92-15.49h-30.08l-8.45,15.49h-27.91L208.88,4.19ZM224.37,56.93l-2.94-32.9-16.9,32.9h19.84Z"/>
    <path class="cls-2" d="M259.05,89.7l4.86-22.66c8.32,2.82,17.79,4.99,25.73,4.99,8.45,0,14.34-2.43,14.34-6.14,0-8.7-30.98-7.94-30.98-32.39,0-18.94,18.69-30.98,41.09-30.98,7.42,0,16.77,1.28,23.55,4.48l-4.74,22.66c-5.89-2.3-14.59-4.35-22.27-4.35-8.32,0-12.16,2.43-12.16,5.5,0,8.7,32,7.04,32,32.39,0,19.97-19.71,32.26-43.27,32.26-9.73,0-20.23-2.18-28.16-5.76Z"/>
    <path class="cls-2" d="M333.16,89.7l4.86-22.66c8.32,2.82,17.79,4.99,25.73,4.99,8.45,0,14.34-2.43,14.34-6.14,0-8.7-30.98-7.94-30.98-32.39,0-18.94,18.69-30.98,41.09-30.98,7.42,0,16.77,1.28,23.55,4.48l-4.74,22.66c-5.89-2.3-14.59-4.35-22.27-4.35-8.32,0-12.16,2.43-12.16,5.5,0,8.7,32,7.04,32,32.39,0,19.97-19.71,32.26-43.27,32.26-9.73,0-20.23-2.18-28.16-5.76Z"/>
    <path class="cls-2" d="M478.95,4.19h31.36l12.54,89.6h-25.86l-1.92-15.49h-30.08l-8.45,15.49h-27.91L478.95,4.19ZM494.44,56.93l-2.94-32.9-16.9,32.9h19.84Z"/>
    <path class="cls-2" d="M550.89,4.19h35.59c18.69,0,29.19,13.18,29.19,27.65,0,12.16-8.96,23.55-20.35,30.47l14.08,31.49h-27.39l-10.37-25.47h-9.73l-5.38,25.47h-24.58l18.94-89.6ZM575.98,47.84c8.32,0,14.46-5.76,14.46-13.57,0-5.38-3.33-8.06-9.86-8.06h-9.73l-4.61,21.63h9.73Z"/>
    <path class="cls-2" d="M622.69,55.52c0-27.01,21.25-52.99,57.09-52.99,9.6,0,17.54,1.79,24.96,5.63l-4.99,23.17c-6.4-3.2-13.31-4.99-20.86-4.99-17.54,0-29.57,10.24-29.57,26.37,0,10.5,5.12,18.94,21.12,18.94,6.27,0,14.59-1.28,21.5-3.58l-5.12,24.06c-6.91,2.05-15.49,3.33-22.66,3.33-26.62,0-41.47-17.28-41.47-39.94Z"/>
    <path class="cls-2" d="M742.25,4.19h31.36l12.54,89.6h-25.86l-1.92-15.49h-30.08l-8.45,15.49h-27.91l50.31-89.6ZM757.74,56.93l-2.94-32.9-16.9,32.9h19.84Z"/>
    <path class="cls-2" d="M814.18,4.19h30.46c23.3,0,40.19,15.1,40.19,38.4,0,28.67-25.6,51.2-55.81,51.2h-33.79l18.95-89.6ZM831.34,70.37c17.67,0,27.39-12.54,27.39-27.01,0-9.6-7.3-15.1-17.67-15.1h-6.91l-8.96,42.11h6.14Z"/>
    <path class="cls-2" d="M908.13,4.19h59.65l-4.74,22.4h-35.2l-2.43,11.14h29.44l-4.74,21.89h-29.44l-2.43,11.78h37.12l-4.74,22.4h-61.44l18.95-89.6Z"/>
  </g>
  <g>
    <path class="cls-1" d="M0,54.53C0,24.58,24.07,0,55.81,0c10.5,0,21.12,2.3,29.7,6.53l-4.86,23.04c-6.78-3.58-15.87-5.5-25.6-5.5-21.25,0-29.44,14.72-29.44,27.65,0,9.34,6.02,17.54,19.07,17.54,3.84,0,6.91-.51,9.98-1.41l2.43-11.52h-13.06l4.22-20.35h36.1l-11.14,51.84c-11.26,4.1-20.61,5.12-28.93,5.12C15.23,92.93,0,78.6,0,54.53Z"/>
    <path class="cls-1" d="M108.42,1.66h25.09l-13.95,65.79h35.33l-4.99,23.81h-60.42L108.42,1.66Z"/>
    <path class="cls-1" d="M205.05,1.66h31.36l12.54,89.6h-25.86l-1.92-15.49h-30.08l-8.45,15.49h-27.91L205.05,1.66ZM220.54,54.4l-2.94-32.9-16.9,32.9h19.84Z"/>
    <path class="cls-1" d="M255.23,87.17l4.86-22.66c8.32,2.82,17.79,4.99,25.73,4.99,8.45,0,14.34-2.43,14.34-6.14,0-8.7-30.98-7.94-30.98-32.39,0-18.94,18.69-30.98,41.09-30.98,7.42,0,16.77,1.28,23.55,4.48l-4.74,22.66c-5.89-2.3-14.59-4.35-22.27-4.35-8.32,0-12.16,2.43-12.16,5.5,0,8.7,32,7.04,32,32.39,0,19.97-19.71,32.26-43.27,32.26-9.73,0-20.23-2.18-28.16-5.76Z"/>
    <path class="cls-1" d="M329.34,87.17l4.86-22.66c8.32,2.82,17.79,4.99,25.73,4.99,8.45,0,14.34-2.43,14.34-6.14,0-8.7-30.98-7.94-30.98-32.39,0-18.94,18.69-30.98,41.09-30.98,7.42,0,16.77,1.28,23.55,4.48l-4.74,22.66c-5.89-2.3-14.59-4.35-22.27-4.35-8.32,0-12.16,2.43-12.16,5.5,0,8.7,32,7.04,32,32.39,0,19.97-19.71,32.26-43.27,32.26-9.73,0-20.23-2.18-28.16-5.76Z"/>
    <path class="cls-1" d="M475.13,1.66h31.36l12.54,89.6h-25.86l-1.92-15.49h-30.08l-8.45,15.49h-27.91L475.13,1.66ZM490.62,54.4l-2.94-32.9-16.9,32.9h19.84Z"/>
    <path class="cls-1" d="M547.06,1.66h35.58c18.69,0,29.19,13.18,29.19,27.65,0,12.16-8.96,23.55-20.35,30.47l14.08,31.49h-27.39l-10.37-25.47h-9.73l-5.38,25.47h-24.58L547.06,1.66ZM572.15,45.31c8.32,0,14.46-5.76,14.46-13.57,0-5.38-3.33-8.06-9.86-8.06h-9.73l-4.61,21.63h9.73Z"/>
    <path class="cls-1" d="M618.87,52.99c0-27.01,21.25-52.99,57.09-52.99,9.6,0,17.54,1.79,24.96,5.63l-4.99,23.17c-6.4-3.2-13.31-4.99-20.87-4.99-17.54,0-29.57,10.24-29.57,26.37,0,10.5,5.12,18.94,21.12,18.94,6.27,0,14.59-1.28,21.5-3.58l-5.12,24.06c-6.91,2.05-15.49,3.33-22.66,3.33-26.62,0-41.47-17.28-41.47-39.94Z"/>
    <path class="cls-1" d="M738.43,1.66h31.36l12.54,89.6h-25.86l-1.92-15.49h-30.08l-8.45,15.49h-27.91L738.43,1.66ZM753.91,54.4l-2.94-32.9-16.9,32.9h19.84Z"/>
    <path class="cls-1" d="M810.36,1.66h30.46c23.3,0,40.19,15.1,40.19,38.4,0,28.67-25.6,51.2-55.81,51.2h-33.79L810.36,1.66ZM827.51,67.84c17.67,0,27.39-12.54,27.39-27.01,0-9.6-7.3-15.1-17.67-15.1h-6.91l-8.96,42.11h6.14Z"/>
    <path class="cls-1" d="M904.31,1.66h59.65l-4.74,22.4h-35.2l-2.43,11.14h29.44l-4.74,21.89h-29.44l-2.43,11.78h37.12l-4.74,22.4h-61.44L904.31,1.66Z"/>
  </g>
</svg>